<?xml version="1.0" encoding="UTF-8"?>
<svg width="590px" height="468px" viewBox="0 0 590 468" version="1.1" xmlns="http://www.w3.org/2000/svg" xmlns:xlink="http://www.w3.org/1999/xlink">
    <title>A1</title>
    <g id="Page-1" stroke="none" stroke-width="1" fill="none" fill-rule="evenodd">
        <g id="A1">
            <rect fill="#9E7687" x="0" y="0" width="590" height="468"></rect>
            <g id="Infinity-Sign-" transform="translate(5.000000, -69.993031)">
                <g id="Group" transform="translate(0.000000, 0.993031)">
                    <g id="Infinity" transform="translate(296.929935, 296.391402) rotate(90.000000) translate(-296.929935, -296.391402) translate(91.429935, 244.891402)" stroke="#E2E2E2" stroke-width="15.2064">
                        <path d="M75.6346344,100.096053 C191.988096,75.5419308 275.463354,22.757044 325.896282,4.90161083 C376.32921,-12.9538223 410.557069,23.0338855 410.557069,52.4988318 C410.557069,81.9637781 375.174217,112.694414 325.896282,100.096053 C276.618348,87.4976919 241.386205,70.152361 201.761343,52.4988318 C147.840904,28.4763876 104.572337,9.10081155 75.6346344,4.90161083 C25.431295,-2.38348373 0.905873543,28.7002213 0.905873543,52.4988318 C0.905873543,76.2974423 25.431295,107.381147 75.6346344,100.096053 Z" id="Path-4"></path>
                    </g>
                    <g id="Infinity" transform="translate(290.618133, 290.395753) rotate(45.000000) translate(-290.618133, -290.395753) translate(85.118133, 85.395753)" stroke-width="15.2064">
                        <path d="M75.6346344,253.516807 C191.988096,228.962685 275.463354,176.177798 325.896282,158.322365 C376.32921,140.466932 410.557069,176.45464 410.557069,205.919586 C410.557069,235.384532 375.174217,266.115168 325.896282,253.516807 C276.618348,240.918446 241.386205,223.573115 201.761343,205.919586 C147.840904,181.897142 104.572337,162.521566 75.6346344,158.322365 C25.431295,151.03727 0.905873543,182.120975 0.905873543,205.919586 C0.905873543,229.718196 25.431295,260.801901 75.6346344,253.516807 Z" id="Path-4" stroke="#FFFFFF"></path>
                        <path d="M75.5287954,253.47765 C191.97733,228.943575 275.520796,176.201784 325.994932,158.360928 C376.469069,140.520073 410.723969,176.478399 410.723969,205.919289 C410.723969,235.360179 375.313132,266.065725 325.994932,253.47765 C276.676732,240.889575 241.415802,223.558406 201.758562,205.919289 C147.794065,181.916458 104.490143,162.556701 75.5287954,158.360928 C25.284435,151.081782 0.738973734,182.140109 0.738973734,205.919289 C0.738973734,229.69847 25.284435,260.756797 75.5287954,253.47765 Z" id="Path-4" stroke="#C7C7C7" transform="translate(205.731471, 204.989497) rotate(270.000000) translate(-205.731471, -204.989497) "></path>
                    </g>
                    <g id="Infinity" transform="translate(77.419268, 237.752534)" stroke="#595959" stroke-width="20.0448">
                        <path d="M76.3909807,101.097013 C193.907977,76.2973501 278.217988,22.9846144 329.155245,4.95062694 C380.092502,-13.0833606 414.66264,23.2642243 414.66264,53.0238201 C414.66264,82.7834159 378.925959,113.821358 329.155245,101.097013 C279.384531,88.3726688 243.800067,70.8538846 203.778956,53.0238201 C149.319313,28.7611515 105.61806,9.19181966 76.3909807,4.95062694 C25.685608,-2.40731857 0.914932279,28.9872235 0.914932279,53.0238201 C0.914932279,77.0604167 25.685608,108.454959 76.3909807,101.097013 Z" id="Path-4"></path>
                    </g>
                </g>
            </g>
        </g>
    </g>
</svg>